<?xml version="1.0" encoding="UTF-8" standalone="no"?>
<svg
   width="42"
   height="42"
   viewBox="0 0 16 16"
   shape-rendering="crispEdges"
   version="1.1"
   id="svg9"
   sodipodi:docname="sidebar-icon.svg"
   inkscape:version="1.4.3 (0d15f75042, 2025-12-25)"
   inkscape:export-filename="sidebar-icon.png"
   inkscape:export-xdpi="96"
   inkscape:export-ydpi="96"
   xmlns:inkscape="http://www.inkscape.org/namespaces/inkscape"
   xmlns:sodipodi="http://sodipodi.sourceforge.net/DTD/sodipodi-0.dtd"
   xmlns="http://www.w3.org/2000/svg"
   xmlns:svg="http://www.w3.org/2000/svg">
  <defs
     id="defs9">
    <linearGradient
       id="swatch10"
       inkscape:swatch="solid">
      <stop
         style="stop-color:#000000;stop-opacity:1;"
         offset="0"
         id="stop10" />
    </linearGradient>
  </defs>
  <sodipodi:namedview
     id="namedview9"
     pagecolor="#ffffff"
     bordercolor="#111111"
     borderopacity="1"
     inkscape:showpageshadow="0"
     inkscape:pageopacity="0"
     inkscape:pagecheckerboard="1"
     inkscape:deskcolor="#d1d1d1"
     inkscape:export-bgcolor="#ffffff00"
     inkscape:zoom="49.75"
     inkscape:cx="8"
     inkscape:cy="8"
     inkscape:window-width="1920"
     inkscape:window-height="1008"
     inkscape:window-x="0"
     inkscape:window-y="0"
     inkscape:window-maximized="1"
     inkscape:current-layer="svg9" />
  <g
     inkscape:groupmode="layer"
     id="layer1"
     inkscape:label="back"
     style="display:inline">
    <rect
       width="16"
       height="16"
       fill="#1e1e1e"
       id="rect1"
       x="0"
       y="0"
       style="display:none" />
  </g>
  <path
     id="rect10"
     style="display:inline;fill:#999999"
     d="m 5,4 v 8 h 6 V 4 Z m 1,1 h 4 v 6 H 6 Z" />
  <path
     id="rect3-6"
     style="fill:&quot;currentColor&quot;"
     d="M 5 2 L 5 3 L 4 3 L 4 4 L 3 4 L 3 12 L 4 12 L 4 13 L 5 13 L 5 14 L 11 14 L 11 13 L 12 13 L 12 12 L 13 12 L 13 4 L 12 4 L 12 3 L 11 3 L 11 2 L 5 2 z M 6 4 L 10 4 L 10 5 L 11 5 L 11 11 L 10 11 L 10 12 L 6 12 L 6 11 L 5 11 L 5 5 L 6 5 L 6 4 z " />
  <rect
     style="display:inline;fill:#666666"
     id="rect9"
     width="3"
     height="1.5"
     x="3"
     y="7.25" />
  <rect
     style="display:inline;fill:#666666"
     id="rect9-8"
     width="3"
     height="1.5"
     x="10"
     y="7.25" />
</svg>
